RBDS027runT25_grf
version=1
nRows=34
nColumns=19
inDegrees=no
endheader
time	ground_force_r_vx	ground_force_r_vy	ground_force_r_vz	ground_force_r_px	ground_force_r_py	ground_force_r_pz	ground_force_r_mx	ground_force_r_my	ground_force_r_mz	ground_force_l_vx	ground_force_l_vy	ground_force_l_vz	ground_force_l_px	ground_force_l_py	ground_force_l_pz	ground_force_l_mx	ground_force_l_my	ground_force_l_mz
     14.99900000	   -114.93087109	    259.87707169	    -19.21604500	      2.32723649	      0.00000000	      1.05419375	     -0.00000000	     -3.96552917	     -0.00000000	      0.00000000	      0.00000000	      0.00000000	      0.00000000	      0.00000000	      0.00000000	      0.00000000	      0.00000000	      0.00000000
     15.00000000	   -117.70717451	    277.70165599	    -19.76275869	      2.32650678	      0.00000000	      1.05331041	     -0.00000000	     -3.71700020	     -0.00000000	      0.00000000	      0.00000000	      0.00000000	      0.00000000	      0.00000000	      0.00000000	      0.00000000	      0.00000000	      0.00000000
     15.00100000	   -120.29732488	    295.61432143	    -20.12840557	      2.32563181	      0.00000000	      1.05243841	     -0.00000000	     -3.47104582	     -0.00000000	      0.00000000	      0.00000000	      0.00000000	      0.00000000	      0.00000000	      0.00000000	      0.00000000	      0.00000000	      0.00000000
     15.00200000	   -122.88747525	    313.52698687	    -20.49405245	      2.32475684	      0.00000000	      1.05156641	     -0.00000000	     -3.22509143	     -0.00000000	      0.00000000	      0.00000000	      0.00000000	      0.00000000	      0.00000000	      0.00000000	      0.00000000	      0.00000000	      0.00000000
     15.00300000	   -125.47762562	    331.43965231	    -20.85969933	      2.32388187	      0.00000000	      1.05069441	     -0.00000000	     -2.97913704	     -0.00000000	      0.00000000	      0.00000000	      0.00000000	      0.00000000	      0.00000000	      0.00000000	      0.00000000	      0.00000000	      0.00000000
     15.00400000	   -127.92135169	    349.40922848	    -21.09380384	      2.32289223	      0.00000000	      1.04983230	     -0.00000000	     -2.73450399	     -0.00000000	      0.00000000	      0.00000000	      0.00000000	      0.00000000	      0.00000000	      0.00000000	      0.00000000	      0.00000000	      0.00000000
     15.00500000	   -130.29186562	    367.40726002	    -21.26213716	      2.32184526	      0.00000000	      1.04897513	     -0.00000000	     -2.49053162	     -0.00000000	      0.00000000	      0.00000000	      0.00000000	      0.00000000	      0.00000000	      0.00000000	      0.00000000	      0.00000000	      0.00000000
     15.00600000	   -132.66237954	    385.40529156	    -21.43047049	      2.32079830	      0.00000000	      1.04811797	     -0.00000000	     -2.24655924	     -0.00000000	      0.00000000	      0.00000000	      0.00000000	      0.00000000	      0.00000000	      0.00000000	      0.00000000	      0.00000000	      0.00000000
     15.00700000	   -134.95180567	    403.42981818	    -21.52949088	      2.31968720	      0.00000000	      1.04726691	     -0.00000000	     -2.00306215	     -0.00000000	      0.00000000	      0.00000000	      0.00000000	      0.00000000	      0.00000000	      0.00000000	      0.00000000	      0.00000000	      0.00000000
     15.00800000	   -137.07905619	    421.50733494	    -21.48988542	      2.31844787	      0.00000000	      1.04642807	     -0.00000000	     -1.76051563	     -0.00000000	      0.00000000	      0.00000000	      0.00000000	      0.00000000	      0.00000000	      0.00000000	      0.00000000	      0.00000000	      0.00000000
     15.00900000	   -139.20630671	    439.58485170	    -21.45027997	      2.31720853	      0.00000000	      1.04558923	     -0.00000000	     -1.51796912	     -0.00000000	      0.00000000	      0.00000000	      0.00000000	      0.00000000	      0.00000000	      0.00000000	      0.00000000	      0.00000000	      0.00000000
     15.01000000	   -141.33355724	    457.66236846	    -21.41067451	      2.31596919	      0.00000000	      1.04475039	     -0.00000000	     -1.27542261	     -0.00000000	      0.00000000	      0.00000000	      0.00000000	      0.00000000	      0.00000000	      0.00000000	      0.00000000	      0.00000000	      0.00000000
     15.01100000	   -143.20354077	    475.80725785	    -21.15867116	      2.31452416	      0.00000000	      1.04393335	     -0.00000000	     -1.03384166	     -0.00000000	      0.00000000	      0.00000000	      0.00000000	      0.00000000	      0.00000000	      0.00000000	      0.00000000	      0.00000000	      0.00000000
     15.01200000	   -145.07352431	    493.95214725	    -20.90666781	      2.31307912	      0.00000000	      1.04311632	     -0.00000000	     -0.79226072	     -0.00000000	      0.00000000	      0.00000000	      0.00000000	      0.00000000	      0.00000000	      0.00000000	      0.00000000	      0.00000000	      0.00000000
     15.01300000	   -146.94350784	    512.09703664	    -20.65466447	      2.31163409	      0.00000000	      1.04229929	     -0.00000000	     -0.55067977	     -0.00000000	      0.00000000	      0.00000000	      0.00000000	      0.00000000	      0.00000000	      0.00000000	      0.00000000	      0.00000000	      0.00000000
     15.01400000	   -148.63845931	    530.27275579	    -20.26234883	      2.31004792	      0.00000000	      1.04149912	     -0.00000000	     -0.30953254	     -0.00000000	      0.00000000	      0.00000000	      0.00000000	      0.00000000	      0.00000000	      0.00000000	      0.00000000	      0.00000000	      0.00000000
     15.01500000	   -150.24589476	    548.46388982	    -19.79987704	      2.30839119	      0.00000000	      1.04070737	     -0.00000000	     -0.06860217	     -0.00000000	      0.00000000	      0.00000000	      0.00000000	      0.00000000	      0.00000000	      0.00000000	      0.00000000	      0.00000000	      0.00000000
     15.01600000	   -151.85333020	    566.65502385	    -19.33740525	      2.30673446	      0.00000000	      1.03991563	     -0.00000000	      0.17232819	     -0.00000000	      0.00000000	      0.00000000	      0.00000000	      0.00000000	      0.00000000	      0.00000000	      0.00000000	      0.00000000	      0.00000000
     15.01700000	   -153.37394600	    584.85077618	    -18.80753825	      2.30500759	      0.00000000	      1.03913346	     -0.00000000	      0.41308523	     -0.00000000	      0.00000000	      0.00000000	      0.00000000	      0.00000000	      0.00000000	      0.00000000	      0.00000000	      0.00000000	      0.00000000
     15.01800000	   -154.72092253	    603.05576509	    -18.14288082	      2.30314043	      0.00000000	      1.03837045	     -0.00000000	      0.65349561	     -0.00000000	      0.00000000	      0.00000000	      0.00000000	      0.00000000	      0.00000000	      0.00000000	      0.00000000	      0.00000000	      0.00000000
     15.01900000	   -156.06789906	    621.26075401	    -17.47822339	      2.30127328	      0.00000000	      1.03760744	     -0.00000000	      0.89390599	     -0.00000000	      0.00000000	      0.00000000	      0.00000000	      0.00000000	      0.00000000	      0.00000000	      0.00000000	      0.00000000	      0.00000000
     15.02000000	   -157.41487559	    639.46574292	    -16.81356597	      2.29940612	      0.00000000	      1.03684443	     -0.00000000	      1.13431637	     -0.00000000	      0.00000000	      0.00000000	      0.00000000	      0.00000000	      0.00000000	      0.00000000	      0.00000000	      0.00000000	      0.00000000
     15.02100000	   -158.50927248	    657.63942747	    -15.96114711	      2.29733666	      0.00000000	      1.03611354	     -0.00000000	      1.37412170	     -0.00000000	      0.00000000	      0.00000000	      0.00000000	      0.00000000	      0.00000000	      0.00000000	      0.00000000	      0.00000000	      0.00000000
     15.02200000	   -159.60366936	    675.81311201	    -15.10872826	      2.29526720	      0.00000000	      1.03538266	     -0.00000000	      1.61392703	     -0.00000000	      0.00000000	      0.00000000	      0.00000000	      0.00000000	      0.00000000	      0.00000000	      0.00000000	      0.00000000	      0.00000000
     15.02300000	   -160.69806624	    693.98679655	    -14.25630941	      2.29319773	      0.00000000	      1.03465177	     -0.00000000	      1.85373236	     -0.00000000	      0.00000000	      0.00000000	      0.00000000	      0.00000000	      0.00000000	      0.00000000	      0.00000000	      0.00000000	      0.00000000
     15.02400000	   -161.63211004	    712.10056597	    -13.29221432	      2.29100290	      0.00000000	      1.03394448	     -0.00000000	      2.09291619	     -0.00000000	      0.00000000	      0.00000000	      0.00000000	      0.00000000	      0.00000000	      0.00000000	      0.00000000	      0.00000000	      0.00000000
     15.02500000	   -162.48597730	    730.18437783	    -12.27228112	      2.28874539	      0.00000000	      1.03324898	     -0.00000000	      2.33178926	     -0.00000000	      0.00000000	      0.00000000	      0.00000000	      0.00000000	      0.00000000	      0.00000000	      0.00000000	      0.00000000	      0.00000000
     15.02600000	   -163.33984456	    748.26818968	    -11.25234792	      2.28648788	      0.00000000	      1.03255349	     -0.00000000	      2.57066234	     -0.00000000	      0.00000000	      0.00000000	      0.00000000	      0.00000000	      0.00000000	      0.00000000	      0.00000000	      0.00000000	      0.00000000
     15.02700000	   -164.11843432	    766.29814611	    -10.18513666	      2.28417417	      0.00000000	      1.03187084	     -0.00000000	      2.80902717	     -0.00000000	      0.00000000	      0.00000000	      0.00000000	      0.00000000	      0.00000000	      0.00000000	      0.00000000	      0.00000000	      0.00000000
     15.02800000	   -164.74646907	    784.22039166	     -9.02336928	      2.28174807	      0.00000000	      1.03121386	     -0.00000000	      3.04637552	     -0.00000000	      0.00000000	      0.00000000	      0.00000000	      0.00000000	      0.00000000	      0.00000000	      0.00000000	      0.00000000	      0.00000000
     15.02900000	   -165.37450382	    802.14263722	     -7.86160189	      2.27932196	      0.00000000	      1.03055688	     -0.00000000	      3.28372387	     -0.00000000	      0.00000000	      0.00000000	      0.00000000	      0.00000000	      0.00000000	      0.00000000	      0.00000000	      0.00000000	      0.00000000
     15.03000000	   -166.00253857	    820.06488278	     -6.69983451	      2.27689586	      0.00000000	      1.02989991	     -0.00000000	      3.52107222	     -0.00000000	      0.00000000	      0.00000000	      0.00000000	      0.00000000	      0.00000000	      0.00000000	      0.00000000	      0.00000000	      0.00000000
     15.03100000	   -166.42073589	    837.74193634	     -5.42687545	      2.27432471	      0.00000000	      1.02928434	     -0.00000000	      3.75602070	     -0.00000000	      0.00000000	      0.00000000	      0.00000000	      0.00000000	      0.00000000	      0.00000000	      0.00000000	      0.00000000	      0.00000000
     15.03200000	   -166.83893320	    855.41898991	     -4.15391640	      2.27175355	      0.00000000	      1.02866878	     -0.00000000	      3.99096918	     -0.00000000	      0.00000000	      0.00000000	      0.00000000	      0.00000000	      0.00000000	      0.00000000	      0.00000000	      0.00000000	      0.00000000
